<?xml version="1.0" standalone="no"?><!DOCTYPE svg PUBLIC "-//W3C//DTD SVG 1.1//EN" "http://www.w3.org/Graphics/SVG/1.1/DTD/svg11.dtd"><svg t="1488375241469" class="icon" style="" viewBox="0 0 1024 1024" version="1.1" xmlns="http://www.w3.org/2000/svg" p-id="7854" xmlns:xlink="http://www.w3.org/1999/xlink" width="200" height="200"><defs><style type="text/css"></style></defs><path d="M151.590534 199.296045c-1.886977 0-3.930519-0.314155-5.816472-1.099031l-71.38891-28.304649c-8.018627-3.145643-12.109806-12.263301-8.806573-20.440541 3.146667-8.019651 12.264325-12.109806 20.440541-8.807596l71.387887 28.304649c8.019651 3.145643 12.109806 12.263301 8.806573 20.440541-2.515287 6.132674-8.333806 9.907651-14.624069 9.907651L151.58951 199.296045 151.590534 199.296045z" p-id="7855" fill="#f4ea2a"></path><path d="M175.806051 151.021575c-2.672876 0-5.347798-0.630357-7.705496-2.043542l-31.921014-18.083867c-7.546883-4.245697-10.220782-13.837146-5.975085-21.383006 4.244674-7.547907 13.837146-10.220782 21.38403-5.976108l31.921014 18.083867c7.546883 4.245697 10.219759 13.837146 5.975085 21.383006-2.829442 5.190209-8.176217 8.019651-13.678534 8.019651L175.806051 151.021575 175.806051 151.021575z" p-id="7856" fill="#f4ea2a"></path><path d="M936.690492 835.747475c-1.611707 0-3.222391-0.268106-4.699022-0.938372l-45.915749-17.453511c-6.980995-2.686179-10.471492-10.338463-7.78736-17.320481 2.687202-6.980995 10.339486-10.471492 17.321504-7.78736l45.915749 17.453511c6.982018 2.686179 10.472516 10.338463 7.788383 17.320481C947.164031 832.391031 942.063873 835.747475 936.690492 835.747475L936.690492 835.747475z" p-id="7857" fill="#f4ea2a"></path><path d="M946.087513 903.011438c-2.281973 0-4.564969-0.538259-6.712889-1.87879l-75.185376-43.633776c-6.443759-3.759627-8.592702-11.949146-4.834098-18.393929 3.759627-6.444782 11.949146-8.591679 18.393929-4.834098l75.185376 43.6348c6.443759 3.759627 8.591679 11.948123 4.834098 18.393929C955.217451 900.595412 950.652482 903.012462 946.087513 903.011438L946.087513 903.011438 946.087513 903.011438z" p-id="7858" fill="#f4ea2a"></path><path d="M779.098267 427.387927c-7.900947 0-15.388479-4.574179-18.924002-12.267395-32.023344-70.496587-89.626273-64.463174-97.319489-61.138452-10.397814 4.782933-22.874987 0.207731-27.656897-10.191106-4.78191-10.398838-0.207731-22.874987 10.19213-27.656897 14.347776-6.653537 43.461861-8.733918 72.78163 2.079358 23.915689 8.94165 57.392128 29.941939 79.851653 79.435167 4.782933 10.398838 0 22.874987-10.396791 27.450189-2.702552 1.661849-5.615904 2.288113-8.526187 2.288113L779.098267 427.386904 779.098267 427.387927z" p-id="7859" fill="#f4ea2a"></path><path d="M519.163143 881.33986c-3.742231 0-7.485485-1.039679-10.813277-2.910283-3.950985-2.495844-99.193163-60.09775-195.888436-141.822053C179.376367 624.108311 111.998817 524.085246 111.998817 439.863053c0-79.230506 26.615171-144.733359 76.942393-189.232852 43.044352-37.845956 101.271498-58.851363 164.070776-58.851363 66.75231 0 127.886669 23.704888 165.942403 63.008033 37.84698-39.09439 98.359168-62.59257 165.110455-62.59257 63.008033 0 121.441886 20.796652 164.696016 58.642608 50.739615 44.50154 77.56661 109.588931 77.56661 188.607612 0 84.427878-67.376527 184.449919-200.462614 297.15891-96.696296 81.929987-191.936427 139.532917-195.886389 142.028761-3.327792 1.661849-7.072069 2.702552-10.8143 2.702552L519.164167 881.33986 519.163143 881.33986zM353.011986 233.164411c-92.121094 0-199.420889 54.06536-199.420889 206.492958 0 70.494541 64.255443 162.200172 185.90506 265.135566 75.692936 64.045665 152.218844 113.954355 179.666986 131.423215 27.656897-17.466814 104.389512-67.583235 180.084495-131.63197C820.479747 601.859587 884.736213 510.156002 884.736213 439.451684c0-151.802358-108.132766-205.868741-200.668299-205.868741-63.215764 0-121.233132 25.78834-147.641595 65.5049-3.742231 5.823636-10.398838 9.358135-17.260106 9.358135l0 0c-6.864338 0-13.30912-3.326768-17.260106-9.150404-27.03268-40.340777-85.46858-66.128093-148.892075-66.128093L353.011986 233.164411 353.011986 233.164411z" p-id="7860" fill="#f4ea2a"></path></svg>